<svg xmlns="http://www.w3.org/2000/svg" fill="none" viewBox="0 0 67 18">
  <path fill="#b29354" d="M1.728.312v15.6h7.896v1.584H0V.312zM12.324 11.52V.312h1.729v11.136c0 3.024 1.656 4.656 4.656 4.656 2.928 0 4.584-1.68 4.584-4.656V.312h1.727V11.52c0 3.888-2.4 6.264-6.311 6.264-3.984 0-6.384-2.352-6.384-6.264m19.425 5.976h-1.704V.312h1.704l6.264 15.144L44.277.312h1.728v17.184h-1.704v-8.16c0-3 .048-4.32.144-5.496l-5.592 13.656h-1.656L31.605 3.912c.096.648.144 2.544.144 5.16zm34.7-8.592c0 5.208-3.383 8.88-8.183 8.88-4.824 0-8.184-3.672-8.184-8.88S53.466 0 58.266 0c4.824 0 8.184 3.672 8.184 8.904m-1.775 0c0-4.296-2.616-7.224-6.408-7.224s-6.384 2.928-6.384 7.224 2.592 7.224 6.384 7.224 6.408-2.952 6.408-7.224"/>
</svg>
